<?xml version="1.0" encoding="utf-8"?>
<svg xmlns="http://www.w3.org/2000/svg" viewBox="0 0 500 500">
  <path d="M 445.119 -0.291 L 53.91 -0.291 C 24.446 -0.291 0.563 33.414 0.563 74.941 L 0.563 426.03 C 0.563 467.582 24.446 501.262 53.91 501.262 L 445.119 501.262 C 474.583 501.262 498.467 467.582 498.467 426.03 L 498.467 74.941 C 498.467 33.414 474.583 -0.291 445.119 -0.291 Z" style="stroke-width: 1; fill: rgb(49, 127, 44);"/>
  <path d="M 249.516 -0.291 L 249.516 501.262 L 53.91 501.262 C 39.774 501.262 26.205 493.337 16.194 479.244 C 6.181 465.126 0.563 445.992 0.563 426.03 L 0.563 74.941 C 0.563 55.004 6.181 35.871 16.194 21.752 C 26.205 7.66 39.774 -0.291 53.91 -0.291 L 249.516 -0.291 Z" style="stroke-width: 1; fill: rgb(72, 165, 85);"/>
  <path d="M 178.385 -0.291 L 178.385 350.797 C 178.385 357.468 176.517 363.836 173.176 368.553 C 169.85 373.24 165.316 375.874 160.604 375.874 C 155.891 375.874 151.374 373.24 148.032 368.553 C 144.706 363.836 142.823 357.468 142.823 350.797 L 142.823 -0.291 L 178.385 -0.291 Z" fill="#F5F5F5" style="stroke-width: 1;"/>
  <path d="M 409.554 175.252 L 320.644 175.252 C 315.932 175.252 311.415 172.619 308.071 167.929 C 304.746 163.215 302.861 156.845 302.861 150.173 C 302.861 143.529 304.746 137.16 308.071 132.444 C 311.415 127.756 315.932 125.098 320.644 125.098 L 409.554 125.098 C 414.266 125.098 418.801 127.756 422.127 132.444 C 425.47 137.16 427.337 143.529 427.337 150.173 C 427.337 156.845 425.47 163.215 422.127 167.929 C 418.801 172.619 414.266 175.252 409.554 175.252 Z" style="stroke-width: 1; fill: rgb(239, 239, 239);"/>
  <path d="M 409.554 275.565 L 356.207 275.565 C 351.496 275.565 346.979 272.931 343.636 268.24 C 340.312 263.525 338.426 257.156 338.426 250.484 C 338.426 243.839 340.312 237.471 343.636 232.757 C 346.979 228.065 351.496 225.406 356.207 225.406 L 409.554 225.406 C 414.266 225.406 418.801 228.065 422.127 232.757 C 425.47 237.471 427.337 243.839 427.337 250.484 C 427.337 257.156 425.47 263.525 422.127 268.24 C 418.801 272.931 414.266 275.565 409.554 275.565 Z" style="stroke-width: 1; fill: rgb(244, 244, 244);"/>
  <path d="M 409.554 375.874 L 320.644 375.874 C 315.932 375.874 311.415 373.24 308.071 368.553 C 304.746 363.836 302.861 357.468 302.861 350.797 C 302.861 344.151 304.746 337.781 308.071 333.067 C 311.415 328.375 315.932 325.719 320.644 325.719 L 409.554 325.719 C 414.266 325.719 418.801 328.375 422.127 333.067 C 425.47 337.781 427.337 344.151 427.337 350.797 C 427.337 357.468 425.47 363.836 422.127 368.553 C 418.801 373.24 414.266 375.874 409.554 375.874 Z" style="stroke-width: 1; fill: rgb(239, 239, 239);"/>
</svg>